<mxfile host="app.diagrams.net" modified="2020-08-17T02:03:16.472Z" agent="5.0 (X11; Linux x86_64) AppleWebKit/537.36 (KHTML, like Gecko) Chrome/84.0.4147.105 Safari/537.36 OPR/70.0.3728.106" etag="43_s80dgazLDbmO0X9aS" version="13.6.2" type="github">
  <diagram id="SsGNrF4sOVybS0CelrMV" name="Page-1">
    <mxGraphModel dx="1382" dy="808" grid="1" gridSize="10" guides="1" tooltips="1" connect="1" arrows="1" fold="1" page="1" pageScale="1" pageWidth="850" pageHeight="1100" math="0" shadow="0">
      <root>
        <mxCell id="0" />
        <mxCell id="1" parent="0" />
        <mxCell id="UiGpj8nbxqR-BWijNMPB-8" style="edgeStyle=orthogonalEdgeStyle;rounded=0;orthogonalLoop=1;jettySize=auto;html=1;exitX=0.5;exitY=1;exitDx=0;exitDy=0;entryX=0.5;entryY=0;entryDx=0;entryDy=0;" edge="1" parent="1" source="UiGpj8nbxqR-BWijNMPB-2" target="UiGpj8nbxqR-BWijNMPB-3">
          <mxGeometry relative="1" as="geometry" />
        </mxCell>
        <mxCell id="UiGpj8nbxqR-BWijNMPB-2" value="Animelover leeharam" style="rounded=1;whiteSpace=wrap;html=1;" vertex="1" parent="1">
          <mxGeometry x="360" y="30" width="120" height="60" as="geometry" />
        </mxCell>
        <mxCell id="UiGpj8nbxqR-BWijNMPB-9" style="edgeStyle=orthogonalEdgeStyle;rounded=0;orthogonalLoop=1;jettySize=auto;html=1;exitX=0.5;exitY=1;exitDx=0;exitDy=0;entryX=0.5;entryY=0;entryDx=0;entryDy=0;" edge="1" parent="1" source="UiGpj8nbxqR-BWijNMPB-3" target="UiGpj8nbxqR-BWijNMPB-4">
          <mxGeometry relative="1" as="geometry" />
        </mxCell>
        <mxCell id="UiGpj8nbxqR-BWijNMPB-3" value="Loves Anime" style="ellipse;whiteSpace=wrap;html=1;" vertex="1" parent="1">
          <mxGeometry x="360" y="110" width="120" height="80" as="geometry" />
        </mxCell>
        <mxCell id="UiGpj8nbxqR-BWijNMPB-10" style="edgeStyle=orthogonalEdgeStyle;rounded=0;orthogonalLoop=1;jettySize=auto;html=1;exitX=0.5;exitY=1;exitDx=0;exitDy=0;entryX=0.5;entryY=0;entryDx=0;entryDy=0;" edge="1" parent="1" source="UiGpj8nbxqR-BWijNMPB-4" target="UiGpj8nbxqR-BWijNMPB-5">
          <mxGeometry relative="1" as="geometry" />
        </mxCell>
        <mxCell id="UiGpj8nbxqR-BWijNMPB-4" value="RE:zero" style="ellipse;whiteSpace=wrap;html=1;" vertex="1" parent="1">
          <mxGeometry x="360" y="200" width="120" height="80" as="geometry" />
        </mxCell>
        <mxCell id="UiGpj8nbxqR-BWijNMPB-11" style="edgeStyle=orthogonalEdgeStyle;rounded=0;orthogonalLoop=1;jettySize=auto;html=1;exitX=0.5;exitY=1;exitDx=0;exitDy=0;entryX=0.5;entryY=0;entryDx=0;entryDy=0;" edge="1" parent="1" source="UiGpj8nbxqR-BWijNMPB-5" target="UiGpj8nbxqR-BWijNMPB-6">
          <mxGeometry relative="1" as="geometry" />
        </mxCell>
        <mxCell id="UiGpj8nbxqR-BWijNMPB-5" value="RMT" style="ellipse;whiteSpace=wrap;html=1;" vertex="1" parent="1">
          <mxGeometry x="360" y="290" width="120" height="80" as="geometry" />
        </mxCell>
        <mxCell id="UiGpj8nbxqR-BWijNMPB-6" value="Bastard, Pervert" style="ellipse;whiteSpace=wrap;html=1;" vertex="1" parent="1">
          <mxGeometry x="360" y="380" width="120" height="80" as="geometry" />
        </mxCell>
        <mxCell id="UiGpj8nbxqR-BWijNMPB-7" value="" style="endArrow=classic;html=1;" edge="1" parent="1">
          <mxGeometry width="50" height="50" relative="1" as="geometry">
            <mxPoint x="400" y="440" as="sourcePoint" />
            <mxPoint x="450" y="390" as="targetPoint" />
          </mxGeometry>
        </mxCell>
      </root>
    </mxGraphModel>
  </diagram>
</mxfile>
